# xmcd
#
# Track frame offsets: 
#        150
#        11614
#        28211
#        40269
#        73293
#        88971
#        105026
#        142428
#        161629
#        182095
#        205194
#
# Disc length: 2970 seconds
#
# Revision: 0
# Processed by: cddbd v1.5.2PL0 Copyright (c) Steve Scherf et al.
# Submitted via: ExactAudioCopyFreeDBPlugin 1.0
#
DISCID=9e0b980b
DTITLE=Ala Heiler - Fore!
DYEAR=2006
DGENRE=Jazz
TTITLE0=I Concentrate On You
TTITLE1=When I Found You
TTITLE2=The Coffee Song
TTITLE3=A Night In Tunesia
TTITLE4=That Old Black Magic
TTITLE5=Everything But You
TTITLE6=One Note Samba
TTITLE7=Nos Bares De Copacabana
TTITLE8=Work Song
TTITLE9=Luck Be A Lady
TTITLE10=How Do You Keep The Music Playing
EXTD=
EXTT0=
EXTT1=
EXTT2=
EXTT3=
EXTT4=
EXTT5=
EXTT6=
EXTT7=
EXTT8=
EXTT9=
EXTT10=
PLAYORDER=
